<?xml version="1.0" encoding="utf-8"?>
<!-- Generator: Adobe Illustrator 27.3.1, SVG Export Plug-In . SVG Version: 6.00 Build 0)  -->
<svg version="1.1" id="Layer_1" xmlns="http://www.w3.org/2000/svg" xmlns:xlink="http://www.w3.org/1999/xlink" x="0px" y="0px"
	 viewBox="0 0 300 276.3" style="enable-background:new 0 0 300 276.3;" xml:space="preserve">
<style type="text/css">
	.st0{fill:#FAE3FF;}
	.st1{fill:#1B2939;}
	.st2{fill:#FFFFFF;stroke:#1B2939;stroke-width:2.7559;stroke-linecap:round;stroke-miterlimit:10;}
</style>
<g>
	<path class="st0" d="M240,56.7c-41.6-28.6-98.1,5.5-92.2,55.6c0.1,0.9,0.2,1.9,0.4,2.9c8.7,62.2-64.6,74.7-16.4,130.8
		s157.2,19.9,163.9-74.9C299.3,120.3,272.2,78.9,240,56.7z"/>
	<path class="st1" d="M115.9,255.3L115.9,255.3c-62.1,0-112.4-50.3-112.4-112.4v0c0-62.1,50.3-112.4,112.4-112.4h0
		c62.1,0,112.4,50.3,112.4,112.4v0C228.3,204.9,177.9,255.3,115.9,255.3z"/>
	<g>
		<path class="st2" d="M115.9,229.9L115.9,229.9c-62.1,0-112.4-50.3-112.4-112.4v0C3.4,55.4,53.8,5.1,115.9,5.1h0
			c62.1,0,112.4,50.3,112.4,112.4v0C228.3,179.6,177.9,229.9,115.9,229.9z"/>
		<polyline class="st2" points="116.3,48.9 116.3,130.1 146.2,160 		"/>
	</g>
</g>
</svg>
