<?xml version="1.0" encoding="utf-8"?>
<!-- Generator: Adobe Illustrator 27.3.1, SVG Export Plug-In . SVG Version: 6.00 Build 0)  -->
<svg version="1.1" id="Layer_1" xmlns="http://www.w3.org/2000/svg" xmlns:xlink="http://www.w3.org/1999/xlink" x="0px" y="0px"
	 viewBox="0 0 379 463.7" style="enable-background:new 0 0 379 463.7;" xml:space="preserve">
<style type="text/css">
	.st0{fill:#FAE3FF;}
	.st1{fill:#FFFFFF;stroke:#1B2939;stroke-width:1.578;stroke-linecap:round;stroke-miterlimit:10;}
	.st2{fill:#1B2939;}
	.st3{fill:#FFFFFF;}
	.st4{fill:none;stroke:#1B2939;stroke-width:1.578;stroke-linecap:round;stroke-miterlimit:10;}
	.st5{fill:#BB8CFF;}
	.st6{fill:none;stroke:#FFFFFF;stroke-width:1.578;stroke-linecap:round;stroke-miterlimit:10;}
</style>
<g>
	<g>
		<path class="st0" d="M99.2,75C81,133.2,132.6,180.2,209.9,204.3c77.2,24.1,111.8,77.2,146.3,26.8c50.9-74.4-7-194-84.3-218
			C194.7-11,117.3,16.7,99.2,75z"/>
		<ellipse class="st0" cx="68.8" cy="165.4" rx="27" ry="32"/>
	</g>
	<g>
		
			<rect x="44.1" y="253.3" transform="matrix(-1 -4.501744e-11 4.501744e-11 -1 95.5725 716.7819)" class="st0" width="7.4" height="210.1"/>
		<path class="st1" d="M107.7,243.4c0,0-15.9,2.9-25.5-4.1c-4.6-3.4-11.1-3.3-15.1,0.9c-0.3,0.3-0.6,0.6-0.9,1
			c-0.6,0.8-1.6,1.2-2.6,1.2l0,0c-2.5,0-4-2.8-2.7-4.9c3.5-5.7,8.8-12.2,18.5-15.4c14.5-4.8,29.9,1.2,29.9,1.2
			S105.4,234.4,107.7,243.4z"/>
		<path class="st1" d="M85.2,299.4c0.5-27.2,22.7-49.2,50.1-49.2c1,0,1.9,0,2.9,0.1h45v28.5h-2.6c3.1,6.5,4.9,13.8,4.9,21.5
			c0,27.7-22.4,50.1-50.1,50.1c-0.4,0-0.8,0-1.1,0v8.2H85v-59.2H85.2z"/>
		<path class="st1" d="M207.8,149.8h92.8c16.7,0,30.2,13.5,30.2,30.2v155.3c0,20.6-16.7,37.2-37.2,37.2h-123c0,0,7.8-131.1,7-192.1
			C177.4,163.5,191,149.8,207.8,149.8z"/>
		<g>
			<path class="st1" d="M171.6,101.1c6.3-6.1,20.1-6.5,28.3,1.4c5,4.9,8.9,14,7.8,21l13.7,20.3c0,0-16.4,9.4-29.7,7.8
				c0,0,0.8-5.8-2.3-10.6c-1.7,0.8-3.5,1.1-5.2,0.4c-6.6-2.5-9.3-10.5-9.3-10.5s-3,1.8-3.8,1c-0.8-0.9,0.7-6.1-1.2-9.6
				C168,118.7,165.3,107.2,171.6,101.1z"/>
			<path class="st2" d="M208.1,127.8c1.7,1.8,4.5,0.4,4.3-2c-0.2-2-0.2-4.4,0.1-7.5c1.4-12.2-7.8-32.6-29-30.2
				c-18.4,2.1-19.7,15.4-15.7,19.7c0.9,0.9,2.3,1,3.3,0.3c3.1-2.3,11.7-7.9,22.5-6.9c1,0.1,1.8,0.8,2.1,1.8
				C196.9,107.3,200.8,120.1,208.1,127.8z"/>
			<path class="st2" d="M209.3,128.5c0,0-9.4-2.1-14.7-10.8l-3.7,1.2c0,0-5.4-1.7-6.7-13c0,0-15.9,7.6-23-0.5
				c-7.1-8.1,13.6-12.8,24.8-13C197.2,92.2,211.2,118.7,209.3,128.5z"/>
			<path class="st3" d="M190.1,119.9c0,0-1.6-6.6,3.8-6.9c5.4-0.2,6.1,10.6,2.2,11.3C192.1,125,190.1,119.9,190.1,119.9z"/>
			<path class="st1" d="M192.2,120.3c0,0-1.5-4.1,2.8-4.2"/>
			<path class="st2" d="M176.6,123.3c0.1,0.9-0.2,1.7-0.7,1.8c-0.5,0-0.9-0.7-1-1.6c-0.1-0.9,0.2-1.7,0.7-1.8
				C176.1,121.6,176.5,122.3,176.6,123.3z"/>
			<path class="st2" d="M177.5,119.6c0,0-1.5-0.3-3.4,0.2c-1.9,0.4-1.9-1.9,0.7-1.9C177.4,118,178.4,119.6,177.5,119.6z"/>
			<path class="st2" d="M188.8,140.7c0,0,7.4-4.1,8.1-3.2c0.7,1-4,10.5-5.5,9.3C191.2,146.7,190.9,142.5,188.8,140.7z"/>
			<path class="st1" d="M180.5,135.2c0,0-0.3,1.7-1.8,2.1"/>
		</g>
		<g>
			
				<rect x="235.6" y="372.6" transform="matrix(-1 -4.489266e-11 4.489266e-11 -1 484.7929 814.5752)" class="st2" width="13.5" height="69.4"/>
			<g>
				<g>
					<g>
						<circle class="st2" cx="283.1" cy="452.7" r="7.4"/>
						<circle class="st2" cx="202.8" cy="452.7" r="7.4"/>
					</g>
					<line class="st4" x1="284.5" y1="452.7" x2="204.1" y2="452.7"/>
				</g>
				<path class="st4" d="M260.2,451v-3.5c0-3.7-2.9-6.6-6.6-6.6h-22.9c-3.6,0-6.6,6.8-6.6,6.6v3.7"/>
			</g>
		</g>
		<path class="st2" d="M106.4,242.3c0,0,45.2,1.4,53.8-0.7c8.6-2.2,36.4-21.9,36.4-21.9l5.1,89l82-3.1c0,0-0.5-25.4-3-55.9
			c-0.1,0.1-0.2,0.2-0.3,0.3c0,0-0.1-1.3-0.4-3.7c-2.1-15.4-12-74.7-44.6-97.2c-15.6-10.8-36.9-7.9-49.8,5.9l-47.5,50.7l-28.1,13.3
			C92.6,225.4,106.4,242.3,106.4,242.3z"/>
		<path class="st5" d="M73.6,457.8l89.6-1.4l4.1-18.6l1.9-8.9c0.5-2.2,1.1-4.4,1.7-6.6c7.7-25.7,12.8-63.2,7.7-82.8
			c0,0,14.5,5.5,28.3,5.5c24.1,0,59.6-4.2,72.7-27c12.9-22.4,1.2-52.5,1.2-52.5s-101.6-15.5-130.8-5.6
			c-40.1,13.6-54.6,62.7-81.4,81.6c3.2,4.5,7.2,12.7,5.8,24.9c-1.6,13,8.7,23.9,15.4,29.5c8.3-7,20.1-18.6,28.3-32.7
			c0,0,3.8,32.3-3.9,54.7c-2.4,6.9-5.8,12.9-10.8,16.8C88.9,445.3,75.5,445.3,73.6,457.8z"/>
		<path class="st4" d="M117.2,362.1c0,0-13.9-63.6,19.9-64.2c36.8-0.6,40.5,28.3,76.7,28.3"/>
		<path class="st2" d="M198.8,256.6c0,0,9.8,25.1,56.7,30.5c46.9,5.5,5.5-48.1,5.5-48.1L198.8,256.6z"/>
		<g>
			<line class="st4" x1="280.3" y1="249.9" x2="304.7" y2="249.9"/>
			<path class="st3" d="M215.1,299.4c0.5-27.2,22.7-49.2,50.1-49.2c1,0,1.9,0,2.9,0.1h45v28.5h-2.6c3.1,6.5,4.9,13.8,4.9,21.5
				c0,27.7-22.4,50.1-50.1,50.1c-0.4,0-0.8,0-1.1,0v8.2h-49.2v-59.2H215.1z"/>
		</g>
		<path class="st4" d="M179,339.8c0,0-4.6-4.9-9.9-8.5"/>
		<path class="st2" d="M33.9,241.5l-20.5-54.6c-0.6-1.6,0.2-3.4,1.8-4l1.3-0.5c1.6-0.6,3.4,0.2,4,1.8l18.7,49.7c0.5,1.2,1.6,2,2.9,2
			h55.1c1.7,0,3.1,1.4,3.1,3.1l0,0c0,1.7-1.4,3.1-3.1,3.1h-63l0,0l0,0h-0.2V241.5z"/>
		<path class="st1" d="M80.1,228.1c0,0-7.5,2.3-13.6,9.6"/>
		<path class="st1" d="M83.3,230.6c0,0-4.6,1.7-9.6,6.5"/>
		<line class="st1" x1="215.2" y1="343.9" x2="215.2" y2="372"/>
		<path class="st1" d="M10.3,353.1l69.7,50.1c0,0,8.8-6.8,14.5-11.7c-6.7-5.7-21.7-12.4-20.2-25.4c1.4-12.1-2.6-20.4-5.8-24.9
			c-4,2.8-8.4,5-13.1,6.2c-4.3,1.1-8.8,1.1-13.2,0.4C35.9,346.9,21.4,345.7,10.3,353.1z"/>
		<path class="st1" d="M73.6,457.8l89.6-1.4l4.1-18.6c-8,0.8-25.4,1.8-35-3.5c-9.4-5.2-10.6-13.2-17.9-16.5
			c-2.4,6.9-5.8,12.9-10.8,16.8C88.9,445.3,75.5,445.3,73.6,457.8z"/>
		<path class="st6" d="M196.6,219.6c0,0,9.2-9.3,15.2-10.3"/>
		<path class="st1" d="M88.9,431.1c0.5,0,11.7,5.1,11.7,5.1l-5.4-13"/>
		<path class="st6" d="M179,229.7c0,0-26.9-16.2-34.7,13.2"/>
		<polygon class="st2" points="9.8,352.9 80.2,403.7 73.3,408.8 4,357.1 		"/>
		<polygon class="st2" points="163.6,456 162.4,462.3 72.7,463.7 73.1,457.7 		"/>
		<path class="st0" d="M19.5,257.7h164.9c4.3,0,7.8-3.5,7.8-7.8l0,0c0-4.3-3.5-7.8-7.8-7.8H19.5c-4.3,0-7.8,3.5-7.8,7.8l0,0
			C11.7,254.2,15.2,257.7,19.5,257.7z"/>
		
			<rect x="129.5" y="253.3" transform="matrix(-1 -4.501744e-11 4.501744e-11 -1 266.4071 716.7819)" class="st0" width="7.4" height="210.1"/>
		<path class="st2" d="M212.3,125.7c0,0,2.7-9.1,5.2-16.6c3.4-10.5-4.9-20-13.6-17.9c0,0-1.9-9.5-15.7-9.3
			c-13.8,0.2-15.5,15.7-25.7,11l1.7,3.3c0,0-4.3,1-4.3,6.2c0,5.2,19.9,7.5,27.4,0C194.8,95,212.5,125.8,212.3,125.7z"/>
		<path class="st4" d="M214,90.5c0,0-8.3-4.6-11.7,3.6"/>
	</g>
</g>
</svg>
