<?xml version="1.0" encoding="utf-8"?>
<!-- Generator: Adobe Illustrator 27.3.1, SVG Export Plug-In . SVG Version: 6.00 Build 0)  -->
<svg version="1.1" id="Layer_1" xmlns="http://www.w3.org/2000/svg" xmlns:xlink="http://www.w3.org/1999/xlink" x="0px" y="0px"
	 viewBox="0 0 300 248.6" style="enable-background:new 0 0 300 248.6;" xml:space="preserve">
<style type="text/css">
	.st0{fill:#FAE3FF;}
	.st1{fill:#1B2939;}
	.st2{fill:#FFFFFF;}
	.st3{fill:none;stroke:#1B2939;stroke-width:1.4078;stroke-linecap:round;stroke-miterlimit:10;}
	.st4{fill:#1B2939;stroke:#1B2939;stroke-width:1.4078;stroke-linecap:round;stroke-miterlimit:10;}
</style>
<g>
	<path class="st0" d="M60.3,138.8c7.2,41.1,60.1,54.7,86.2,22.2c0.5-0.6,1-1.2,1.5-1.9c31.7-41.1,81.5-5.1,86.7-66.1
		c5.2-61-79.3-104.3-139.2-53.3C63.5,66.9,54.7,106.9,60.3,138.8z"/>
	<ellipse class="st0" cx="34" cy="29.7" rx="31.9" ry="26.8"/>
</g>
<g>
	<g>
		
			<rect x="118.8" y="67.2" transform="matrix(-1.836970e-16 1 -1 -1.836970e-16 365.4406 -51.6003)" class="st1" width="179.3" height="179.3"/>
		<rect x="129.7" y="78.1" class="st2" width="157.7" height="157.7"/>
	</g>
	<circle class="st0" cx="207.7" cy="168" r="40.8"/>
	<circle class="st3" cx="176.8" cy="132.3" r="29.4"/>
	
		<ellipse transform="matrix(0.7071 -0.7071 0.7071 0.7071 -7.992 214.0381)" class="st4" cx="254.4" cy="116.7" rx="11.4" ry="11.4"/>
</g>
</svg>
